<?xml version="1.0" encoding="utf-8"?>
<!-- Generator: Adobe Illustrator 24.0.1, SVG Export Plug-In . SVG Version: 6.00 Build 0)  -->
<svg version="1.1" id="Capa_1" xmlns="http://www.w3.org/2000/svg" xmlns:xlink="http://www.w3.org/1999/xlink" x="0px" y="0px"
	 viewBox="0 0 1984.25 1275.59" style="enable-background:new 0 0 1984.25 1275.59;" xml:space="preserve">
<path d="M555.13,693.2c29.75,0,44.63-9.11,44.63-27.35c0-18.23-11.28-30.95-33.83-38.15l-69.82-23.75
	c-109.42-35.99-164.12-88.06-164.12-156.21c0-64.79,22.32-112.65,66.94-143.61c44.63-30.95,104.61-46.43,179.96-46.43
	c98.85,0,173,41.75,222.43,125.25l-165.56,53.27c-14.88-21.11-34.19-31.67-57.95-31.67s-35.63,8.4-35.63,25.19
	c0,14.88,13.43,26.63,40.31,35.27l84.22,28.07c100.29,33.6,150.45,83.75,150.45,150.45c0,66.71-21.95,116.14-65.86,148.29
	c-43.91,32.14-102.82,48.23-176.72,48.23c-125.74,0-215.23-46.79-268.5-140.37l152.61-66.23
	C474.97,673.29,507.13,693.2,555.13,693.2z"/>
<path d="M1120.2,409.59c-47.51,0-71.26,45.6-71.26,136.77c0,91.18,24.23,136.77,72.7,136.77c35.02,0,57.82-17.28,68.39-51.83h-39.59
	V520.44h241.15v303.05h-154.77l-7.2-30.95c-22.56,26.88-64.31,40.31-125.25,40.31c-76.3,0-139.54-24.95-189.68-74.86
	c-50.15-49.9-75.22-121.53-75.22-214.87c0-93.33,28.07-164.96,84.22-214.87c56.15-49.9,118.89-74.86,188.24-74.86
	c69.34,0,128.37,15.96,177.08,47.87c48.7,31.92,79.78,76.43,93.22,133.53l-191.48,45.35c-11.05-47.03-34.08-70.54-69.1-70.54H1120.2
	z"/>
<rect x="1450.6" y="269.22" width="199.4" height="554.28"/>
</svg>
