<?xml version="1.0" encoding="utf-8"?>
<!-- Generator: Adobe Illustrator 24.0.1, SVG Export Plug-In . SVG Version: 6.00 Build 0)  -->
<svg version="1.1" id="Capa_1" xmlns="http://www.w3.org/2000/svg" xmlns:xlink="http://www.w3.org/1999/xlink" x="0px" y="0px"
	 viewBox="0 0 1417.3 1417.3" style="enable-background:new 0 0 1417.3 1417.3;" xml:space="preserve">
<style type="text/css">
	.st0{fill-rule:evenodd;clip-rule:evenodd;}
	.st1{fill-rule:evenodd;clip-rule:evenodd;fill:#EA5C0F;}
	.st2{fill-rule:evenodd;clip-rule:evenodd;fill:#F7E200;}
	.st3{fill-rule:evenodd;clip-rule:evenodd;fill:#E61A7A;}
	.st4{fill-rule:evenodd;clip-rule:evenodd;fill:#009FDC;}
	.st5{fill-rule:evenodd;clip-rule:evenodd;fill:url(#SVGID_1_);}
</style>
<g>
	<g>
		<g>
			<path class="st0" d="M193.3,824.9c15.3-17.3,30.5-34.5,45.4-51.4c11.8,10.8,22,22,34,30.9c30.4,22.5,60.8,19.7,87.6-7
				c84.3-84.3,168.2-169,253-252.8c32.6-32.2,72.7-50.7,118.8-55.3c54.6-5.5,102.7,9.2,144.1,45.4c0.5,0.5,1.4,0.6,3.3,1.5
				c0-13,0-25.5,0-38.9c24.8,0,48.3,0,72.8,0c0.2,3.6,0.6,7.3,0.6,11.1c0.2,37,0.1,74.1,0.5,111.1c0.1,8.7-2.4,15.1-8.9,21.5
				c-20.2,19.8-39.7,40.3-60.4,61.6c-2.4-19.2-3.3-35.7-6.7-51.8c-9.7-45.5-53.5-82.8-99.5-89.2c-52-7.2-91.6,13.6-126.9,49.1
				C570.6,691.2,488.5,770.1,409,851.6c-60.9,62.4-164.9,45-212.9-21.4C195.1,828.6,194.3,826.8,193.3,824.9z"/>
			<path class="st0" d="M444.5,548.5c-17.8,16.9-34.3,32.6-50.4,47.9c-11.5-8.8-24-19.9-38-28.6c-12.1-7.6-25.7-12-40.9-8.8
				c-15.4,3.2-26.8,11.1-31.2,26.1c-4.8,16.6,2.8,30.3,15.7,39.6c14.7,10.7,30.6,19.7,46.4,28.6c23,12.9,46,25.7,63.6,45
				c-16.8,16.5-33.3,32.8-48.8,48c-29.4-17.2-60.7-34.8-91.1-53.7c-29.1-18.1-49.7-43.2-55.3-78.1c-10.9-68.6,37.1-118.6,93.5-125.4
				c45.2-5.4,81.5,12.2,114.8,39.9C429.8,534.9,436.5,541.4,444.5,548.5z"/>
		</g>
		<g>
			<path class="st1" d="M551.3,881.8c26.1,0,50.1-0.2,74.1,0.3c2.9,0.1,6.6,3.7,8.3,6.7c28.9,50.1,74.9,64.4,128.9,62.5
				c26-1,50.6-6.5,73.2-20.4c25.8-15.9,39.1-39.2,42.1-68.9c0.8-8.3,1.6-16.7,2.4-24.5c-18.9,10.3-36.4,22.2-55.6,29.8
				c-103.8,41.7-222.2-10.6-259.9-113.4c-3.2-8.8-2.3-14.6,4.7-21.3c18.8-18.1,36.7-37.1,56.7-57.6c1.3,14.7,1.5,26.9,3.5,38.7
				c8.7,52.4,52.3,92.6,105.3,96.1c18.1,1.2,36.5,0.1,54.5-2.2c23.5-3,43.2-15,59.8-31.6c67.9-67.6,135.8-135.3,203.4-203.3
				c3.3-3.3,5.4-9.3,5.6-14.2c0.6-20.1,0.3-40.3,0.3-61.1c24.8,0,47.9,0,72.8,0c0,17.4,0.1,34.4,0,51.4c-0.1,16.3,3.8,34.5-2.1,48.5
				c-5.9,14-21.7,23.8-33.2,35.4c-45.2,45.2-90.4,90.4-135.9,135.4c-5.4,5.4-7.1,10.9-7.6,18.3c-2.1,34.9-1.4,70.4-8.5,104.4
				c-12.9,62.1-54.2,101.3-113.9,119.5c-55.1,16.8-110.6,14.5-165-4.6c-49.7-17.5-82.3-52.9-103.2-100.2
				C558.7,898.1,555.3,890.8,551.3,881.8z"/>
			<path class="st1" d="M1130.6,641.4c0,79.6,0,159.1,0,240.5c-22,0-44,0.2-66-0.3c-2.1-0.1-5.8-4.9-5.8-7.5
				c-0.3-52.6-0.2-105.1-0.1-157.7c0-2.9,0.8-6.6,2.7-8.5c21.8-23.1,43.9-45.9,66-68.9C1128.5,639.8,1129.5,640.6,1130.6,641.4z"/>
			<path class="st1" d="M1044,397.3c-0.1-28.6,22.3-51.3,50.6-51.5c27.7-0.1,51,22.2,51.7,49.5c0.8,29.1-22.3,53.1-51.4,53.5
				C1067.6,449.2,1044.1,425.4,1044,397.3z"/>
		</g>
		<g>
			<path class="st2" d="M872.9,345.9c-2.1,1.6-3.7,3.2-5.7,4.3c-3.7,2-6.9,4.7-10.3,7c-5.9,4.1-12.1,7.9-17.8,12.3
				c-2.4,1.9-5,3.4-7.5,5.1c-5.3,3.7-10.8,7-15.9,11c-3.9,3-8.1,5.5-12.2,8.3c-4.5,3.1-9.1,5.9-13.4,9.3c-3.3,2.5-7,4.4-10.3,6.9
				c-5,3.7-10.4,6.8-15.3,10.6c-4,3.1-8.2,5.9-12.5,8.5c-2.4,1.5-4.5,3.3-6.9,4.7c-2.3,1.3-4.3,3.2-6.5,4.7
				c-4.2,2.8-8.5,5.4-12.6,8.4c-4.2,3-8.7,5.7-12.8,8.9c-3.3,2.6-6.8,4.9-10.3,7.1c-2.4,1.4-4.4,3.3-6.9,4.6c-2.4,1.3-4.7,2.9-7,4.5
				c-2.3,1.6-4.4,3.4-6.7,5.1c-2.5,1.8-5,3.4-7.5,5.1c-2.7,1.7-5.2,3.6-7.8,5.4c-2.6,1.8-5.3,3.4-7.8,5.4c-3.3,2.5-7,4.4-10.3,6.9
				c-5,3.8-10.4,6.8-15.3,10.6c-4.1,3.2-8.7,5.5-12.8,8.6c-5,3.7-10.4,6.8-15.3,10.6c-4.1,3.2-8.6,5.7-12.9,8.6
				c-4.3,2.9-8.4,6.1-12.7,9.1c-3.2,2.2-6.5,4.4-9.7,6.5c-4.9,3.3-9.9,6.6-14.7,9.9c-2.5,1.7-5.3,2.7-8.2,3.4
				c-1.9,0.4-3.8,1.1-5.6,0.6c-3.1-0.9-6.2-1.9-8.8-3.9c-0.7-0.5-1.4-0.9-2.4-1.6c1.9-1.4,2.8-3.3,4.9-4.1c0.9-0.4,1.5-1.5,2.3-2.2
				c5.8-5.6,11.5-11.4,17.6-16.6c3.7-3.2,6.9-6.9,10.7-10c4.3-3.4,7.7-7.7,11.9-11c3.8-3,6.7-6.7,10.4-9.7c4-3.2,7.3-7.3,11.3-10.4
				c3.5-2.8,6.4-6.3,9.8-9.1c4.2-3.4,7.7-7.6,11.9-11c3-2.4,5.6-5.2,8.4-7.8c4.6-4.3,9-9,13.9-12.9c3.5-2.8,6.3-6.4,9.8-9.1
				c4-3.1,7.1-7.1,11-10.2c3.8-3,6.7-6.7,10.4-9.7c4.2-3.4,7.7-7.6,11.9-11c3.8-3.1,6.9-6.9,10.7-10c4.3-3.4,7.7-7.7,11.9-11
				c3.5-2.8,6.3-6.4,9.8-9.1c4-3.1,7.1-7.1,11-10.2c3.3-2.6,6.1-5.8,9.3-8.6c2.7-2.4,5.5-4.8,8.4-6.8c2.6-1.7,5.3-3.3,7.9-5
				c2.5-1.7,5.2-3,7.9-4.4c4.2-2.2,8.8-3.2,13.1-5.2c2.1,0.5,4.1-0.5,6.1-0.9c5.9-1.2,11.8-0.6,17.7-0.7c5.9-0.1,11.8,0,17.6,0
				C836.3,345.9,854.4,345.9,872.9,345.9z"/>
			<path class="st3" d="M743.9,345.9c-4.5,4.5-8.4,9-12.8,12.7c-4.3,3.5-7.9,7.8-12.1,11.4c-6.9,6-13,12.9-19.9,18.9
				c-4.5,3.9-8.4,8.5-13,12.2c-5.7,4.6-10.3,10.4-15.9,15c-5.6,4.7-10.3,10.4-15.8,15.1c-6.1,5.1-11.2,11.3-17.3,16.4
				c-4.3,3.6-7.9,7.8-12.1,11.4c-6.3,5.5-11.9,11.8-18.2,17.2c-5.2,4.5-9.6,9.9-14.9,14.2c-5.8,4.7-10.4,10.6-16.1,15.3
				c-5.4,4.5-9.9,10-15.3,14.5c-5.4,4.5-9.9,10-15.3,14.5c-5.7,4.7-10.4,10.2-15.8,15.1c-3.5,3.1-6.9,6.3-10.7,9
				c-3.8,2.8-8.1,5.2-12.7,6c-4.4,0.7-9.1,0.8-13.1-2c-0.9-0.6-2-0.9-3.3-1.5c1-1.5,1.9-3,3-4.4c3.7-4.8,7.6-9.4,11-14.3
				c4.2-5.9,8.8-11.5,12.9-17.5c2.6-3.8,5.7-7.2,8.4-11c3.6-4.9,7.2-9.9,10.9-14.7c3.8-4.8,7.1-10,11.2-14.7c2.6-3,4.6-6.7,7.1-9.9
				c1.9-2.4,3.6-4.9,5.5-7.3c4.2-5.5,8.5-10.8,12.5-16.5c2.5-3.6,5.2-6.9,7.9-10.4c3.5-4.4,6.6-9.1,10.1-13.5
				c3.5-4.2,6.5-8.8,9.7-13.2c0.9-1.2,1.6-2.6,2.6-3.7c4.2-4.4,7.3-9.6,11-14.4c3.6-4.7,7.4-9.4,10.6-14.4c1.5-2.3,3.7-4,5.3-6.3
				c2.7-4,6.4-7,9.7-10.4c4.7-4.8,10.1-8.7,16-11.8c3.2-1.7,6.4-3.4,9.8-4.3c3-0.8,6-1.7,9.1-2.2c7.4-1.2,14.8-0.4,22.2-0.6
				c7.5-0.2,15,0,22.5,0c7.6,0,15.2,0,22.9,0C742.1,345.9,742.8,345.9,743.9,345.9z"/>
			<path class="st4" d="M456.3,562.8c0-0.9,0.1-1.9,0.6-3c2.8-7.5,6.6-14.7,9.1-22.3c0.9-2.6,2.5-5.1,3.5-7.8
				c1.6-4.5,3.4-9,5.5-13.4c2.2-4.6,3.6-9.5,6.1-13.9c1.1-1.9,1.8-4.1,2.4-6.2c0.7-2.1,2.6-3.8,2.4-6.2c2.7-3.6,3.6-8.1,5.5-12.2
				c1.8-4,3.6-8.1,5-12.4c0.8-2.3,2.1-4.5,3.1-6.7c1.1-2.4,2.3-4.7,3-7.2c0.7-2.6,2.9-4.5,2.7-7.3c2.7-3.7,3.7-8.1,5.5-12.2
				c2-4.6,4-9.3,5.9-14c1.5-3.8,3.1-7.6,4.7-11.3c2-4.5,3.8-9.1,5.7-13.7c1.5-3.8,3.7-7.3,5.5-10.9c2.1-4.4,4.3-8.7,7.2-12.7
				c0.9-1.2,1.6-2.6,2.4-3.8c3.6-5.3,10.9-11.8,17.1-14.7c3.4-1.6,7-2.6,10.6-3.5c4.9-1.2,9.9-1.6,15-1.6c16.4,0.1,32.9,0,49.7,0
				c-2.9,3.8-5.7,7.3-8.2,11c-2,2.9-4.2,5.7-6.2,8.7c-2.6,3.7-5.2,7.5-8,11.1c-2.5,3.3-4.9,6.8-7.4,10.2c-3.2,4.4-6.4,8.8-9.7,13.2
				c-2.9,4-5.9,7.9-8.7,12c-1.3,1.9-2.5,3.8-4,5.6c-1.4,1.6-2.5,3.5-3.7,5.3c-2.5,3.6-5.3,6.8-7.6,10.5c-2.2,3.4-4.7,6.6-7.1,9.9
				c-2.4,3.3-4.9,6.5-7.4,9.8c-1.1,1.5-2,3.2-3.1,4.7c-2.9,4-5.8,8-8.8,12c-3.9,5.2-8,10.3-11.6,15.7c-2.8,4.2-5.7,8.4-8.7,12.4
				c-2.7,3.6-5.1,7.4-8,10.8c-2.2,2.6-4,5.5-6,8.3c-2,2.8-3.9,5.6-6,8.4c-2.3,3.2-4.9,6.2-7,9.5c-2.3,3.7-5.1,6.9-7.5,10.5
				c-2.4,3.7-5.2,7.2-7.8,10.8c-3.3,4.6-7.8,7.7-13.2,9.4c-1.8,0.6-4,0.4-5.8-0.1C460.7,564.9,458.2,564.6,456.3,562.8z"/>
			
				<linearGradient id="SVGID_1_" gradientUnits="userSpaceOnUse" x1="-1104.1594" y1="379.8953" x2="-981.9296" y2="379.8953" gradientTransform="matrix(1 0 0 1 1518.5039 235.6904)">
				<stop  offset="5.618000e-03" style="stop-color:#93939E"/>
				<stop  offset="3.753189e-02" style="stop-color:#9797A2"/>
				<stop  offset="0.1999" style="stop-color:#A8A9B6"/>
				<stop  offset="0.3645" style="stop-color:#B3B5C2"/>
				<stop  offset="0.5337" style="stop-color:#B6B8C6"/>
				<stop  offset="0.6768" style="stop-color:#B9BBC8"/>
				<stop  offset="0.815" style="stop-color:#C4C5D1"/>
				<stop  offset="0.9508" style="stop-color:#D4D5E1"/>
				<stop  offset="1" style="stop-color:#DBDCE8"/>
			</linearGradient>
			<path class="st5" d="M452.6,570.2c2,1.4,3.3,2.9,4.9,3.5c2.1,0.8,4.2,1.7,6.5,1.7c1.3,0,2.7,0,4,0c5.1,0,9.7-1.3,13.9-4.3
				c0.9-0.7,1.8-0.8,2.8,0.1c2.7,2.6,6.2,3.8,9.6,4.7c2.4,0.7,5,1.5,7.6,1.1c2.4-0.4,4.8,0,7.3-0.6c4.3-1.1,8.2-2.9,11.9-5.2
				c1-0.7,1.8-0.8,2.8,0c1.2,0.9,2.4,1.9,3.7,2.6c2.7,1.6,5.8,2.2,9,2.7c-1.6,1.7-3,3.4-5.3,3.8c-2.4,2.5-5.7,3.9-8.3,6
				c-3.8,3-8,5.4-11.8,8.4c-2.5,1.9-5.1,3.7-7.8,5.4c-2.6,1.8-5.3,3.4-7.8,5.4c-3.2,2.6-7,4.5-10.3,7c-5,3.7-10.4,6.7-15.3,10.6
				c-3.1,2.5-6.7,4.6-10,6.9c-5.3,3.7-10.9,6.9-15.9,11c-2.3,1.9-4.9,3.6-7.5,5.1c-3.2,1.8-6.1,4.1-9.1,6.1c-3,2-6.4,3.7-9,6.4
				c-0.9,0.9-2.3,1.5-4.1,2.5c1.8-4.2,3.6-7.7,4.8-11.3c2.2-6.3,5.6-12.1,7.5-18.6c0.8-2.7,2.6-5.1,3.6-7.7
				c1.7-4.3,3.8-8.3,5.2-12.7c0.8-2.5,2.1-4.7,3.2-7.1c1.1-2.4,2.6-4.6,3.1-7.1c0.5-2.6,2.8-4.3,2.5-7c2.7-3.7,3.3-8.3,5.6-12.1
				C451,575.2,451.6,572.8,452.6,570.2z"/>
		</g>
	</g>
</g>
</svg>
